<svg class="logo" width="100" height="50" viewBox="0 0 450 130" xmlns="http://www.w3.org/2000/svg"><title>Templo Logo</title><g fill="#FFF" fill-rule="evenodd"><path d="M26.714 94.9c-9.086 0-14.26-4.485-14.26-13.8 0-1.725.114-3.45.46-5.406l4.83-27.946H7.968l.92-5.865h9.89c5.52-2.875 11.96-12.306 15.526-20.7h3.68l-3.68 20.7h15.18l-1.034 5.865H33.27l-5.406 30.247c-.23 1.38-.345 2.53-.345 3.565 0 4.14 1.84 5.75 4.714 5.75 3.45 0 6.326-3.22 8.28-10.12H45C42.01 89.84 36.375 94.9 26.714 94.9M84.56 66.494c16.445-3.68 20.125-7.705 20.125-13.34 0-3.336-1.84-6.21-6.096-6.21-8.166 0-12.766 8.854-14.03 19.55zM69.147 73.28c0-16.906 11.846-32.547 31.052-32.547 10.35 0 17.48 5.06 17.48 11.845 0 7.476-3.91 14.376-33.466 19.322v.69c0 9.775 4.83 14.26 12.536 14.26 5.75 0 13.685-2.645 16.1-10.35h4.37c-2.3 10.695-11.73 18.4-25.99 18.4-14.836 0-22.082-9.43-22.082-21.62zM165.864 41.883l-1.725 9.89c3.45-6.21 9.2-11.04 18.17-11.04 8.05 0 13.915 4.485 14.605 12.536 3.91-7.477 10.235-12.537 19.32-12.537 8.51 0 14.492 5.175 14.492 14.376 0 1.264-.116 2.644-.345 4.14l-3.566 20.7c-.23 1.495-.46 2.875-.46 3.91 0 1.84.46 2.99 1.956 2.99 2.76 0 3.45-2.875 4.025-7.13h4.37c-.805 7.705-2.875 15.18-13.686 15.18-6.784 0-11.844-3.335-11.844-11.5 0-1.265.115-2.53.345-3.91l2.992-17.596c.46-2.415.574-4.37.574-5.98-.115-5.176-2.07-7.246-6.325-7.246-6.21 0-11.5 7.476-12.535 13.226l-5.52 31.74H175.18l5.634-31.74c.346-2.3.576-4.255.576-5.866 0-5.29-2.185-7.36-6.556-7.36-6.325 0-11.615 8.396-12.65 14.146l-5.406 30.82h-15.296l9.086-51.75h15.296M304.21 62.354c0-10.926-4.716-14.376-9.776-14.376-7.82 0-15.41 10.695-15.41 24.726 0 9.89 4.484 14.836 10.695 14.836 8.05 0 14.49-9.2 14.49-25.186zM276.262 84.55l-6.44 36.687h-15.18l13.915-79.354h15.296l-1.266 7.36c4.256-6.095 11.27-8.51 17.02-8.51 12.767 0 20.242 8.165 20.242 23.23 0 16.907-10.696 30.938-26.567 30.938-6.44 0-13.915-3.104-17.02-10.35zM356.646 93.635h-15.294l14.836-84.528h15.294l-14.836 84.528M427.604 61.894c0-9.89-3.106-14.376-9.66-14.376-9.202 0-15.642 11.96-15.642 27.14 0 8.167 3.22 13.342 9.774 13.342 8.627 0 15.528-10.925 15.528-26.106zm-8.627-21.16c15.527 0 24.152 8.74 24.152 23.46 0 15.296-12.077 30.707-32.433 30.707-15.296 0-23.922-8.28-23.922-22.196 0-15.986 12.192-31.97 32.202-31.97z"/></g></svg>